HIERARCHY
ROOT Hips
{
  OFFSET 49.8619 54.0657 1.83676
  CHANNELS 6 Xposition Yposition Zposition Zrotation Xrotation Yrotation
  JOINT spine
  {
    OFFSET 0 7.80059 0.448573
    CHANNELS 3 Zrotation Xrotation Yrotation
    JOINT spine1
    {
      OFFSET 0 10.1364 0
      CHANNELS 3 Zrotation Xrotation Yrotation
      JOINT spine2
      {
        OFFSET 0 9.71251 0
        CHANNELS 3 Zrotation Xrotation Yrotation
        JOINT Neck
        {
          OFFSET 0 24.9361 1.18887
          CHANNELS 3 Zrotation Xrotation Yrotation
          JOINT Head
          {
            OFFSET 0 7.53384 0
            CHANNELS 3 Zrotation Xrotation Yrotation
            End Site
            {
              OFFSET 0 18.2361 -6.01402
            }
          }
        }
        JOINT RightShoulder
        {
          OFFSET -4.08965 10.4888 -0.569457
          CHANNELS 3 Zrotation Xrotation Yrotation
          JOINT RightArm
          {
            OFFSET 0 13.757 0
            CHANNELS 3 Zrotation Xrotation Yrotation
            JOINT RightArmRoll
            {
              OFFSET 0 6.94478 0
              CHANNELS 3 Zrotation Xrotation Yrotation
              JOINT RightForeArm
              {
                OFFSET 0 20.2277 0
                CHANNELS 3 Zrotation Xrotation Yrotation
                JOINT RightForeArmRoll
                {
                  OFFSET 0 7.79312 0
                  CHANNELS 3 Zrotation Xrotation Yrotation
                  JOINT RightHand
                  {
                    OFFSET 0 15.6391 0
                    CHANNELS 3 Zrotation Xrotation Yrotation
                    End Site
                    {
                      OFFSET 0 0 0
                    }
                  }
                }
              }
            }
          }
        }
        JOINT LeftShoulder
        {
          OFFSET 4.08965 10.4888 -0.569457
          CHANNELS 3 Zrotation Xrotation Yrotation
          JOINT LeftArm
          {
            OFFSET 0 13.757 0
            CHANNELS 3 Zrotation Xrotation Yrotation
            JOINT LeftArmRoll
            {
              OFFSET 0 6.94478 0
              CHANNELS 3 Zrotation Xrotation Yrotation
              JOINT LeftForeArm
              {
                OFFSET 0 20.2277 0
                CHANNELS 3 Zrotation Xrotation Yrotation
                JOINT LeftForeArmRoll
                {
                  OFFSET 0 7.79312 0
                  CHANNELS 3 Zrotation Xrotation Yrotation
                  JOINT LeftHand
                  {
                    OFFSET 0 15.6391 0
                    CHANNELS 3 Zrotation Xrotation Yrotation
                    End Site
                    {
                      OFFSET 0 0 0
                    }
                  }
                }
              }
            }
          }
        }
      }
    }
  }
  JOINT RightUpLeg
  {
    OFFSET -6.91416 -1.26788 -1.06358
    CHANNELS 3 Zrotation Xrotation Yrotation
    JOINT RightUpLegRoll
    {
      OFFSET 0 18.3378 0
      CHANNELS 3 Zrotation Xrotation Yrotation
      JOINT RightLeg
      {
        OFFSET 0 -22.7085 0
        CHANNELS 3 Zrotation Xrotation Yrotation
        JOINT RightLegRoll
        {
          OFFSET 0 22.7828 0
          CHANNELS 3 Zrotation Xrotation Yrotation
          JOINT RightFoot
          {
            OFFSET 0 18.9629 0
            CHANNELS 3 Zrotation Xrotation Yrotation
            JOINT RightToeBase
            {
              OFFSET 0 15.852 0
              CHANNELS 3 Zrotation Xrotation Yrotation
              End Site
              {
                OFFSET 0.00671906 7.677 -0.884893
              }
            }
          }
        }
      }
    }
  }
  JOINT LeftUpLeg
  {
    OFFSET 6.91416 -1.26788 -1.06358
    CHANNELS 3 Zrotation Xrotation Yrotation
    JOINT LeftUpLegRoll
    {
      OFFSET 0 18.3379 0
      CHANNELS 3 Zrotation Xrotation Yrotation
      JOINT LeftLeg
      {
        OFFSET 0 22.7084 0
        CHANNELS 3 Zrotation Xrotation Yrotation
        JOINT LeftLegRoll
        {
          OFFSET 0 22.9934 0
          CHANNELS 3 Zrotation Xrotation Yrotation
          JOINT LeftFoot
          {
            OFFSET 0 18.7522 0
            CHANNELS 3 Zrotation Xrotation Yrotation
            JOINT LeftToeBase
            {
              OFFSET 0 15.852 0
              CHANNELS 3 Zrotation Xrotation Yrotation
              End Site
              {
                OFFSET -0.030112 7.67701 -0.884892
              }
            }
          }
        }
      }
    }
  }
}
MOTION
Frames: 6
Frame Time: 0.00208333
54.9037 93.8418 33.853 -1.76463 -5.84772 4.77819 0.377043 -0.709611 -0.012185 0.744665 2.56339 -0.0786806 0.746341 4.20837 -0.0911455 -3.33763 16.3425 -1.04758 6.2663 -11.7726 -0.747371 76.5108 -4.22359 -3.82172 110.737 32.0249 -59.5359 -2.79269e-005 -1.45415e-005 -1.19237e-005 -139.085 81.0156 126.712 -6.89023e-006 4.3487e-006 -3 8.03051 -4.95113 0.697624 -60.9545 -0.41016 0.519831 -115.789 19.5382 49.4297 9.54166e-015 -4.77083e-015 6.36111e-015 177.911 84.7348 -165.711 7.82362e-006 2.79047e-006 3.00001 -8.03018 -4.95122 -0.697642 -175.18 2.15596 -4.02252 180 7.01536e-015 178.878 179.216 11.7934 179.526 4.17324e-007 -3.52577e-006 0.259022 -20.8304 68.3166 19.8087 8.13649 25.2326 -3.48773 -178.729 5.40244 5.18181 4.54188e-006 -4.6773e-006 -1.24626 -4.9379 -19.0506 -0.357873 3.89412e-006 3.60998e-006 -0.325874 23.909 71.5483 -23.2782 -8.13709 25.2415 3.48914 
54.9065 93.8401 33.8341 -1.75982 -5.83957 4.78413 0.376272 -0.701513 -0.0118758 0.743285 2.58102 -0.0771814 0.74495 4.22601 -0.0896289 -3.34123 16.2883 -1.03421 6.22851 -11.7364 -0.743182 76.5091 -4.22581 -3.82256 110.731 32.0199 -59.5324 -2.79269e-005 -1.45415e-005 -1.19237e-005 -138.949 81.0624 126.607 -6.89023e-006 4.3487e-006 -3 8.03051 -4.95113 0.697624 -60.9387 -0.445087 0.538617 -115.823 19.5125 49.4434 -4.77083e-015 0 -6.36111e-015 177.807 84.7248 -165.6 7.82362e-006 2.79047e-006 3.00001 -8.03018 -4.95122 -0.697642 -175.186 2.1909 -4.02155 180 7.01536e-015 178.878 179.215 11.8205 179.526 4.17324e-007 -3.52577e-006 0.259009 -20.828 68.314 19.8064 8.13649 25.2326 -3.48773 -178.733 5.43105 5.18062 4.54188e-006 -4.6773e-006 -1.24628 -4.94158 -19.065 -0.359288 3.89412e-006 3.60998e-006 -0.325874 23.9092 71.5476 -23.2758 -8.13709 25.2415 3.48914 
54.9067 93.8357 33.8013 -1.75493 -5.83146 4.7896 0.375436 -0.693401 -0.0115984 0.741758 2.59874 -0.0757056 0.743413 4.24372 -0.0881334 -3.3429 16.2328 -1.02102 6.18891 -11.6998 -0.738991 76.5084 -4.22806 -3.82348 110.722 32.0151 -59.5303 -2.79269e-005 -1.45415e-005 -1.19237e-005 -138.812 81.1079 126.501 -6.89023e-006 4.3487e-006 -3 8.03051 -4.95113 0.697624 -60.9219 -0.481128 0.557948 -115.858 19.487 49.4565 -1.59028e-015 9.54166e-015 -3.18055e-015 177.702 84.7137 -165.487 7.82362e-006 2.79047e-006 3.00001 -8.03018 -4.95122 -0.697642 -175.191 2.22583 -4.02042 180 7.01537e-015 178.878 179.213 11.8477 179.526 4.17324e-007 -3.52577e-006 0.258975 -20.8255 68.3115 19.8041 8.13649 25.2326 -3.48773 -178.738 5.45943 5.17944 4.54188e-006 -4.6773e-006 -1.2463 -4.94534 -19.0794 -0.360742 3.89412e-006 3.60998e-006 -0.325874 23.9094 71.5469 -23.2734 -8.13709 25.2415 3.48914 
54.905 93.8316 33.785 -1.74998 -5.82338 4.79476 0.374556 -0.685278 -0.0113432 0.740128 2.61651 -0.0742462 0.741774 4.26149 -0.0866527 -3.34322 16.1763 -1.00797 6.14804 -11.6629 -0.734799 76.5083 -4.23034 -3.82445 110.713 32.0104 -59.5292 -2.79269e-005 -1.45415e-005 -1.19237e-005 -138.676 81.1524 126.395 -6.89023e-006 4.3487e-006 -3 8.03051 -4.95113 0.697624 -60.9044 -0.517949 0.577661 -115.895 19.4615 49.4692 3.18055e-015 -3.18055e-015 3.18055e-015 177.595 84.7018 -165.372 7.82362e-006 2.79047e-006 3.00001 -8.03018 -4.95122 -0.697642 -175.197 2.26074 -4.01918 180 7.01537e-015 178.879 179.211 11.875 179.526 4.17324e-007 -3.52577e-006 0.258927 -20.8231 68.309 19.8017 8.13649 25.2326 -3.48773 -178.742 5.48764 5.17827 4.54188e-006 -4.6773e-006 -1.24633 -4.94916 -19.0938 -0.362223 3.89412e-006 3.60998e-006 -0.325874 23.9098 71.5462 -23.2711 -8.13709 25.2415 3.48914 
54.9058 93.8324 33.775 -1.74499 -5.81532 4.79973 0.373649 -0.677149 -0.0111006 0.738439 2.63431 -0.0727961 0.740075 4.2793 -0.0851805 -3.34276 16.1194 -0.995003 6.10643 -11.6258 -0.730606 76.5086 -4.23264 -3.82545 110.703 32.0058 -59.5287 -2.79269e-005 -1.45415e-005 -1.19237e-005 -138.539 81.1964 126.287 -6.89023e-006 4.3487e-006 -3 8.03051 -4.95113 0.697624 -60.8865 -0.555215 0.597593 -115.932 19.436 49.4816 -1.59028e-015 9.54166e-015 -0 177.488 84.6895 -165.256 7.82362e-006 2.79047e-006 3.00001 -8.03018 -4.95122 -0.697642 -175.203 2.29565 -4.01788 180 7.01537e-015 178.879 179.209 11.9024 179.525 4.17324e-007 -3.52577e-006 0.25887 -20.8206 68.3064 19.7994 8.13649 25.2326 -3.48773 -178.747 5.51576 5.17711 4.54188e-006 -4.6773e-006 -1.24636 -4.95302 -19.1081 -0.363721 3.89412e-006 3.60998e-006 -0.325874 23.9101 71.5455 -23.2688 -8.13709 25.2415 3.48914 
54.8996 93.8287 33.7516 -1.74 -5.80727 4.80466 0.372736 -0.669019 -0.0108613 0.736734 2.65213 -0.0713484 0.738361 4.29711 -0.0837103 -3.34208 16.0623 -0.98206 6.06464 -11.5887 -0.726415 76.509 -4.23494 -3.82646 110.693 32.0012 -59.5283 -2.79269e-005 -1.45415e-005 -1.19237e-005 -138.401 81.2403 126.178 -6.89023e-006 4.3487e-006 -3 8.03051 -4.95113 0.697624 -60.8684 -0.592592 0.61758 -115.97 19.4105 49.494 1.59028e-015 6.36111e-015 -3.18055e-015 177.381 84.6771 -165.141 7.82362e-006 2.79047e-006 3.00001 -8.03018 -4.95122 -0.697642 -175.209 2.33056 -4.01656 180 7.01537e-015 178.879 179.208 11.9297 179.525 4.17324e-007 -3.52577e-006 0.258811 -20.8182 68.3038 19.797 8.13649 25.2326 -3.48773 -178.751 5.54385 5.17595 4.54188e-006 -4.6773e-006 -1.24639 -4.95688 -19.1225 -0.365223 3.89412e-006 3.60998e-006 -0.325874 23.9105 71.5449 -23.2665 -8.13709 25.2415 3.48914 
